<svg width="300" height="100" viewBox="0 0 120 36" fill="none" xmlns="http://www.w3.org/2000/svg">
            <path d="M44.326 26.2421C43.429 26.2421 42.5521 25.9761 41.8063 25.4778C41.0605 24.9794 40.4791 24.2711 40.1359 23.4423C39.7926 22.6136 39.7028 21.7017 39.8778 20.8219C40.0528 19.9421 40.4847 19.134 41.119 18.4997C41.7533 17.8654 42.5614 17.4334 43.4412 17.2584C44.321 17.0834 45.2329 17.1733 46.0617 17.5165C46.8904 17.8598 47.5987 18.4411 48.0971 19.187C48.5954 19.9328 48.8614 20.8097 48.8614 21.7067C48.8603 22.9092 48.382 24.0621 47.5317 24.9124C46.6814 25.7627 45.5285 26.2409 44.326 26.2421ZM44.326 7.41415C41.499 7.41401 38.7355 8.25219 36.3848 9.8227C34.0342 11.3932 32.2021 13.6255 31.1201 16.2373C30.0382 18.8491 29.7551 21.7231 30.3066 24.4958C30.8581 27.2685 32.2194 29.8153 34.2184 31.8143C36.2174 33.8133 38.7643 35.1747 41.537 35.7262C44.3097 36.2776 47.1837 35.9945 49.7954 34.9126C52.4072 33.8307 54.6395 31.9986 56.21 29.6479C57.7806 27.2973 58.6187 24.5337 58.6186 21.7067C58.6186 19.8298 58.2489 17.9712 57.5306 16.2372C56.8124 14.5031 55.7596 12.9275 54.4324 11.6003C53.1052 10.2732 51.5296 9.22038 49.7956 8.50211C48.0615 7.78384 46.203 7.41415 44.326 7.41415Z" fill="#F1303e"></path>
            <path d="M82.1213 8.88648L76.4867 12.1391C76.0218 12.4075 75.4945 12.5488 74.9578 12.5488C74.421 12.5488 73.8937 12.4075 73.4289 12.1391L67.7943 8.88648C66.6266 8.24656 65.2548 8.08917 63.9725 8.448C62.6903 8.80683 61.5994 9.65338 60.9335 10.8064C60.2676 11.9595 60.0795 13.3274 60.4095 14.6174C60.7395 15.9074 61.5613 17.0169 62.6992 17.7085L68.3338 20.9619C68.7987 21.2302 69.1848 21.6161 69.4533 22.0809C69.7217 22.5458 69.8631 23.0731 69.8631 23.6099V29.9945C69.8505 31.3285 70.3541 32.6158 71.2686 33.5871C72.1831 34.5585 73.4377 35.1387 74.7701 35.2065C75.4541 35.2313 76.1361 35.118 76.7753 34.8733C77.4146 34.6287 77.998 34.2578 78.4908 33.7828C78.9835 33.3077 79.3755 32.7382 79.6433 32.1084C79.9111 31.4785 80.0493 30.8011 80.0495 30.1166V23.6129C80.0495 23.0761 80.1909 22.5488 80.4593 22.0839C80.7278 21.6191 81.1139 21.2332 81.5788 20.9649L87.1078 17.773C88.2688 17.1162 89.1313 16.0364 89.5152 14.7589C89.8992 13.4814 89.7749 12.1051 89.1683 10.917C88.848 10.3121 88.4092 9.77789 87.8779 9.34631C87.3466 8.91473 86.7338 8.59462 86.0761 8.4051C85.4183 8.21558 84.7292 8.16053 84.0497 8.24323C83.3702 8.32594 82.7144 8.54471 82.1213 8.88648Z" fill="#F1303e"></path>
            <path d="M105.593 26.2421C104.696 26.2423 103.819 25.9764 103.073 25.4781C102.327 24.9799 101.745 24.2716 101.402 23.4429C101.058 22.6141 100.969 21.7022 101.143 20.8224C101.318 19.9425 101.75 19.1343 102.385 18.5C103.019 17.8656 103.827 17.4336 104.707 17.2585C105.587 17.0834 106.499 17.1732 107.327 17.5165C108.156 17.8597 108.864 18.441 109.363 19.1869C109.861 19.9328 110.127 20.8097 110.127 21.7067C110.126 22.9091 109.648 24.0619 108.798 24.9121C107.948 25.7624 106.795 26.2407 105.593 26.2421ZM105.593 7.41415C102.766 7.41401 100.002 8.25219 97.6514 9.8227C95.3007 11.3932 93.4686 13.6255 92.3867 16.2373C91.3048 18.8491 91.0216 21.7231 91.5731 24.4958C92.1246 27.2685 93.486 29.8153 95.485 31.8143C97.484 33.8133 100.031 35.1747 102.804 35.7262C105.576 36.2776 108.45 35.9945 111.062 34.9126C113.674 33.8307 115.906 31.9986 117.477 29.6479C119.047 27.2973 119.885 24.5337 119.885 21.7067C119.885 17.9161 118.379 14.2809 115.699 11.6006C113.018 8.92023 109.383 7.41435 105.593 7.41415Z" fill="#F1303e"></path>
            <path d="M105.598 4.2814C106.643 4.28119 107.687 4.36438 108.719 4.53017C109.004 4.57668 109.296 4.53597 109.558 4.41339C109.82 4.2908 110.038 4.09205 110.185 3.84317C110.332 3.59429 110.4 3.30689 110.38 3.01861C110.361 2.73034 110.255 2.45463 110.076 2.22762C109.571 1.56431 108.926 1.02088 108.187 0.636275C107.447 0.25167 106.632 0.0354109 105.799 0.00299916C104.871 -0.0315646 103.949 0.159658 103.112 0.560222C102.275 0.960785 101.548 1.5587 100.993 2.30255C100.828 2.53285 100.735 2.80708 100.726 3.09035C100.717 3.37363 100.792 3.65316 100.943 3.8934C101.093 4.13365 101.311 4.32375 101.57 4.43954C101.829 4.55532 102.116 4.59156 102.395 4.54365C103.454 4.3688 104.525 4.28109 105.598 4.2814Z" fill="#F1303e"></path>
            <path d="M36.3065 9.95046C36.272 9.92573 36.2315 9.907 36.2001 9.88303C36.2435 9.913 36.29 9.94072 36.3334 9.97069C36.3237 9.9647 36.3155 9.9572 36.3065 9.95046Z" fill="#F1303e"></path>
            <path d="M23.6863 26.5351C23.2499 25.9253 22.6786 25.4245 22.0169 25.0717L21.3096 24.76C20.6353 24.5249 19.9178 24.4404 19.2074 24.5123C18.4969 24.5843 17.8109 24.8111 17.1975 25.1766C17.001 25.3439 16.7907 25.4943 16.5689 25.6262C15.8803 26.028 15.0979 26.241 14.3006 26.2434C13.5034 26.2459 12.7197 26.0379 12.0286 25.6403C11.3376 25.2427 10.7637 24.6698 10.3652 23.9793C9.96657 23.2889 9.75736 22.5054 9.75865 21.7082C9.75412 20.8444 9.99734 19.9974 10.4595 19.2676C10.9217 18.5378 11.5834 17.9558 12.3662 17.5906C13.149 17.2254 14.0202 17.0923 14.8763 17.2071C15.7325 17.3219 16.5378 17.6798 17.1968 18.2383C17.8104 18.6037 18.4965 18.8303 19.2071 18.9021C19.9176 18.9739 20.6353 18.8893 21.3096 18.6541L22.0162 18.3432C22.7469 17.953 23.3666 17.3836 23.817 16.6884C24.2674 15.9931 24.5337 15.1948 24.591 14.3684C24.6483 13.542 24.4947 12.7146 24.1446 11.9638C23.7944 11.2131 23.2593 10.5636 22.5894 10.0763C22.5436 10.0434 22.4957 10.0126 22.4492 9.97967C20.3071 8.48648 17.7967 7.60912 15.1908 7.44298C12.5849 7.27683 9.98335 7.82827 7.66896 9.03733C5.35458 10.2464 3.41595 12.0668 2.06385 14.3007C0.711746 16.5345 -0.00206866 19.0963 4.50303e-06 21.7074C-0.00133982 24.3179 0.712741 26.8788 2.06466 29.112C3.41657 31.3451 5.35462 33.1651 7.66824 34.3741C9.98186 35.5831 12.5826 36.135 15.1878 35.9697C17.7931 35.8044 20.3032 34.9284 22.4455 33.4367C22.4919 33.4045 22.5399 33.3737 22.5864 33.3408C23.6296 32.5803 24.3304 31.4387 24.5364 30.1642C24.7424 28.8897 24.4369 27.5855 23.6863 26.5351Z" fill="#F1303e"></path>
          </svg>